<?xml version="1.0" encoding="UTF-8" standalone="no"?>
<svg
   xmlns="http://www.w3.org/2000/svg"
   id="svg18"
   height="61.458752mm"
   width="190.91251mm">
  <path
     style="fill:#ff0000;fill-opacity:1;fill-rule:nonzero;stroke:none"
     d="M 105.40625 17.517578 L 105.40625 53.234375 L 90.566406 53.234375 L 115.95117 93.925781 L 117.11328 92.097656 L 96.689453 59.357422 L 111.5293 59.357422 L 111.5293 17.517578 L 105.40625 17.517578 z M 220.54883 17.517578 L 220.54883 53.234375 L 193.33789 53.234375 L 148.56445 114.50586 L 195.58984 179.17773 L 197.25977 179.17773 L 154.6875 120.62891 L 199.45898 59.357422 L 226.67188 59.357422 L 226.67188 17.517578 L 220.54883 17.517578 z M 309.33008 17.517578 L 309.33008 41.753906 C 310.96833 35.988087 313.01109 30.904173 315.45312 26.511719 L 315.45312 17.517578 L 309.33008 17.517578 z M 712.28906 17.517578 L 712.28906 109.01953 L 676.36914 109.01953 C 676.499 111.01539 676.57227 113.05167 676.57227 115.14258 L 718.41211 115.14258 L 718.41211 17.517578 L 712.28906 17.517578 z M 376.67188 19.255859 C 380.47132 24.110668 383.21075 30.124779 384.88867 37.248047 C 385.68375 35.65143 386.48431 34.138938 387.28906 32.669922 C 385.0309 27.985868 382.10836 24.014091 378.50977 20.792969 C 377.91345 20.251249 377.29793 19.743704 376.67188 19.255859 z M 459.12891 20.779297 C 459.5319 21.283686 459.93227 21.79113 460.31836 22.322266 C 468.05694 32.867146 471.92578 48.898205 471.92578 70.328125 L 471.92578 220.97461 L 431.49023 220.97461 L 431.49023 227.09766 L 478.04883 227.09766 L 478.04883 76.451172 C 478.04883 55.021252 474.17999 38.990203 466.44141 28.445312 C 464.27369 25.463207 461.82961 22.919023 459.12891 20.779297 z M 661.72852 27.304688 C 665.27723 31.514701 668.18889 36.328433 670.45117 41.753906 L 670.45117 36.783203 C 667.93734 33.250208 665.03066 30.089233 661.72852 27.304688 z M 329.57031 48.259766 C 320.42858 48.259766 314.68819 53.48893 312.34961 63.90625 C 310.05354 74.32357 308.86328 89.503583 308.86328 109.44531 L 308.86328 220.97461 L 268.42773 220.97461 L 268.42773 227.09766 L 314.98633 227.09766 L 314.98633 115.56836 C 314.98633 95.626629 316.1766 80.446617 318.47266 70.029297 C 320.81124 59.611967 326.55163 54.382812 335.69336 54.382812 C 337.4838 54.382812 339.08935 54.668183 340.51758 55.224609 C 338.42302 50.597949 334.74821 48.259766 329.57031 48.259766 z M 411.63281 48.259766 C 402.36352 48.259766 396.45442 53.48893 393.98828 63.90625 C 391.52214 74.32357 390.28906 89.503583 390.28906 109.44531 L 390.28906 220.97461 L 349.85156 220.97461 L 349.85156 227.09766 L 396.41016 227.09766 L 396.41016 115.56836 C 396.41016 95.626629 397.64322 80.446617 400.10938 70.029297 C 402.57551 59.611967 408.48656 54.382812 417.75586 54.382812 C 419.41458 54.382812 420.90896 54.638803 422.24414 55.140625 C 420.18756 50.571036 416.65302 48.259766 411.63281 48.259766 z M 616.02539 48.259766 C 609.60491 48.259766 602.84492 49.578624 595.74414 52.214844 C 588.64335 54.851064 582.13725 58.931873 576.26953 64.501953 C 570.3593 70.072033 565.4689 77.131274 561.59961 85.677734 C 557.6878 94.224194 555.77539 104.5138 555.77539 116.54688 C 555.77539 128.2398 557.64499 138.35889 561.38672 146.82031 C 565.12845 155.32424 570.01885 162.29816 576.05664 167.7832 C 576.47787 168.16319 576.91775 168.51979 577.34961 168.88672 C 573.4825 164.34524 570.19466 159.04541 567.50977 152.94336 C 563.76803 144.48194 561.89844 134.36283 561.89844 122.66992 C 561.89844 110.63685 563.81084 100.34724 567.72266 91.800781 C 571.59195 83.254331 576.48234 76.19508 582.39258 70.625 C 588.26029 65.05492 594.76444 60.974111 601.86523 58.337891 C 608.96602 55.701671 615.72797 54.382812 622.14844 54.382812 C 635.7968 54.382812 647.27046 58.363534 656.58789 66.267578 C 656.16848 65.774316 655.75091 65.279883 655.3125 64.800781 C 645.23533 53.788191 632.14035 48.259766 616.02539 48.259766 z M 17.050781 53.234375 L 17.050781 59.357422 L 43.546875 59.357422 L 39.076172 53.234375 L 17.050781 53.234375 z M 131.30078 53.234375 L 131.30078 59.357422 L 137.94922 59.357422 L 141.8457 53.234375 L 131.30078 53.234375 z M 115.95117 135.29688 L 87.845703 179.17773 L 97.890625 179.17773 L 121.01562 143.07422 L 115.95117 135.29688 z M 697.74805 164.59375 C 697.42016 164.90956 697.08489 165.2184 696.75195 165.5293 L 715.43555 191.25391 C 701.91429 204.69013 687.71347 213.87436 672.78906 218.80664 C 657.90717 223.69641 641.74993 226.16211 624.35938 226.16211 C 606.79875 226.16211 590.89554 223.5268 576.56641 218.29688 C 563.00219 213.34614 551.38597 206.44749 541.74414 197.64648 C 543.19107 199.23232 544.68704 200.77583 546.25 202.26562 C 556.19961 211.79004 568.36032 219.18805 582.68945 224.41797 C 597.01859 229.64789 612.92179 232.28516 630.48242 232.28516 C 647.87297 232.28516 664.03022 229.81945 678.91211 224.92969 C 693.83652 219.99741 708.03733 210.81317 721.55859 197.37695 L 697.74805 164.59375 z M 104.93945 185.30078 L 104.93945 220.97461 L 12.585938 220.97461 L 12.585938 227.09766 L 111.06055 227.09766 L 111.06055 185.30078 L 104.93945 185.30078 z M 225.48242 185.30078 L 225.48242 220.97461 L 132.19336 220.97461 L 132.19336 227.09766 L 231.60547 227.09766 L 231.60547 185.30078 L 225.48242 185.30078 z "
     id="path12" />
  <path
     id="path16"
     d="m 219.0189,214.51182 h -99.41103 v -41.79685 h 18.45355 l -28.57323,-43.88032 -28.10551,43.88032 h 17.09291 v 41.79685 H 0 V 172.71497 H 30.35906 L 77.34331,108.04252 32.6126,46.77166 H 4.46457 V 4.93229 H 98.94331 V 46.77166 H 84.10394 L 109.48819,87.463 135.38268,46.77166 H 118.71496 V 4.93229 h 95.37165 v 41.83937 h -27.21259 l -44.77323,61.27086 47.02677,64.67245 h 29.89134 z m 246.44409,0 H 418.90394 V 70.8378 c 0,-9.90709 -1.02047,-17.22047 -3.0189,-21.94016 -2.04095,-4.71968 -5.6126,-7.10078 -10.71496,-7.10078 -9.26929,0 -15.17953,5.22992 -17.64567,15.64724 -2.46614,10.41732 -3.69921,25.59685 -3.69921,45.53858 V 214.51182 H 337.26614 V 70.8378 c 0,-9.90709 -1.06299,-17.22047 -3.14645,-21.94016 -2.08347,-4.71968 -5.78268,-7.10078 -11.0126,-7.10078 -9.14174,0 -14.88189,5.22992 -17.22048,15.64724 C 303.59055,67.86142 302.4,83.04095 302.4,102.98268 V 214.51182 H 255.84095 V 4.93229 h 47.02677 V 35.29134 C 306.14173,23.76851 311.0315,14.96693 317.49449,8.97166 323.91496,2.97638 332.54646,0 343.34646,0 c 8.97165,0 16.54015,2.72126 22.57795,8.2063 6.08031,5.44252 10.24724,13.01103 12.50079,22.57796 C 383.65512,20.28189 389.09764,12.54331 394.71024,7.52599 400.36535,2.50867 408.99685,0 420.68976,0 c 14.41418,0 25.4693,5.27245 33.16536,15.85985 7.73858,10.54488 11.60787,26.5748 11.60787,48.00472 z m 243.51024,-29.72126 c -13.52126,13.43622 -27.72284,22.62047 -42.64725,27.55275 -14.88189,4.88977 -31.03937,7.35591 -48.42992,7.35591 -17.56063,0 -33.46299,-2.63622 -47.79212,-7.86614 -14.32914,-5.22993 -26.48977,-12.62835 -36.43937,-22.15276 -9.99213,-9.52441 -17.60315,-21.00472 -22.96063,-34.52598 -5.31496,-13.47874 -7.95118,-28.57323 -7.95118,-45.19843 0,-15.90236 2.63622,-30.61417 7.95118,-44.17795 5.31496,-13.56378 12.50078,-25.21418 21.55748,-34.86614 9.05669,-9.65197 19.72913,-17.263 32.01732,-22.70552 C 576.56693,2.72126 589.57795,0 603.35433,0 c 14.37165,0 26.87244,2.97638 37.50236,8.97166 10.62992,5.99527 18.32599,14.79685 23.13071,26.31968 V 4.93229 h 41.83937 v 97.6252 H 663.9874 c 0,-18.45355 -5.05984,-33.20788 -15.13701,-44.22048 -10.07716,-11.0126 -23.17322,-16.54015 -39.28818,-16.54015 -6.42048,0 -13.18111,1.31811 -20.28189,3.95433 -7.10079,2.63622 -13.6063,6.71811 -19.47402,12.28819 -5.91024,5.57007 -10.8,12.62834 -14.66929,21.1748 -3.91181,8.54645 -5.8252,18.83622 -5.8252,30.86929 0,11.69291 1.87087,21.8126 5.6126,30.27402 3.74173,8.50393 8.6315,15.47716 14.66929,20.9622 6.08032,5.48504 13.26614,9.60945 21.6,12.37323 8.29134,2.8063 16.88032,4.16693 25.68189,4.16693 15.13701,0 28.27559,-2.33859 39.41575,-7.05827 11.18268,-4.71969 20.79213,-11.0126 28.87087,-18.7937 z"
     style="fill:#333333;fill-opacity:1;fill-rule:nonzero;stroke:none" />
</svg>
