<svg xmlns="http://www.w3.org/2000/svg" width="1920" height="1080"><path d="M236,1318L-161,1359L494,1314Z" fill="#d7d7d7" stroke="#d7d7d7" stroke-width="1.51"/><path d="M-54,-252L422,-227L1055,-286Z" fill="#ededed" stroke="#ededed" stroke-width="1.51"/><path d="M494,1314L-161,1359L1197,1391Z" fill="#d2d2d2" stroke="#d2d2d2" stroke-width="1.51"/><path d="M1459,1329L1197,1391L1680,1340Z" fill="#c9c9c9" stroke="#c9c9c9" stroke-width="1.51"/><path d="M1055,-286L1356,-210L1820,-294Z" fill="#e4e4e4" stroke="#e4e4e4" stroke-width="1.51"/><path d="M2135,494L2110,666L2142,857Z" fill="#cccccc" stroke="#cccccc" stroke-width="1.51"/><path d="M1941,1331L1680,1340L2154,1347Z" fill="#c7c7c7" stroke="#c7c7c7" stroke-width="1.51"/><path d="M1680,1340L1197,1391L2154,1347Z" fill="#c7c7c7" stroke="#c7c7c7" stroke-width="1.51"/><path d="M2142,857L2074,880L2283,1084Z" fill="#c8c8c8" stroke="#c8c8c8" stroke-width="1.51"/><path d="M1953,1084L2154,1347L2283,1084Z" fill="#c7c7c7" stroke="#c7c7c7" stroke-width="1.51"/><path d="M2166,328L2135,494L2283,1084Z" fill="#cccccc" stroke="#cccccc" stroke-width="1.51"/><path d="M2135,494L2142,857L2283,1084Z" fill="#c9c9c9" stroke="#c9c9c9" stroke-width="1.51"/><path d="M2013,-151L2222,-35L2289,-134Z" fill="#dcdcdc" stroke="#dcdcdc" stroke-width="1.51"/><path d="M1820,-294L2013,-151L2289,-134Z" fill="#dfdfdf" stroke="#dfdfdf" stroke-width="1.51"/><path d="M2222,-35L2182,102L2289,-134Z" fill="#d9d9d9" stroke="#d9d9d9" stroke-width="1.51"/><path d="M2182,102L2166,328L2289,-134Z" fill="#d5d5d5" stroke="#d5d5d5" stroke-width="1.51"/><path d="M2166,328L2283,1084L2289,-134Z" fill="#cfcfcf" stroke="#cfcfcf" stroke-width="1.51"/><path d="M2074,880L1953,1084L2283,1084Z" fill="#c8c8c8" stroke="#c8c8c8" stroke-width="1.51"/><path d="M1055,-286L1262,-221L1356,-210Z" fill="#e5e5e5" stroke="#e5e5e5" stroke-width="1.51"/><path d="M2063,564L2110,666L2135,494Z" fill="#cdcdcd" stroke="#cdcdcd" stroke-width="1.51"/><path d="M1953,1084L1941,1331L2154,1347Z" fill="#c7c7c7" stroke="#c7c7c7" stroke-width="1.51"/><path d="M2061,414L2135,494L2166,328Z" fill="#d0d0d0" stroke="#d0d0d0" stroke-width="1.51"/><path d="M2037,177L2166,328L2182,102Z" fill="#d4d4d4" stroke="#d4d4d4" stroke-width="1.51"/><path d="M1928,59L2182,102L2222,-35Z" fill="#d7d7d7" stroke="#d7d7d7" stroke-width="1.51"/><path d="M2013,-151L1928,59L2222,-35Z" fill="#dadada" stroke="#dadada" stroke-width="1.51"/><path d="M2110,666L2074,880L2142,857Z" fill="#cacaca" stroke="#cacaca" stroke-width="1.51"/><path d="M1928,59L2037,177L2182,102Z" fill="#d5d5d5" stroke="#d5d5d5" stroke-width="1.51"/><path d="M2037,177L2061,414L2166,328Z" fill="#d2d2d2" stroke="#d2d2d2" stroke-width="1.51"/><path d="M1989,663L2074,880L2110,666Z" fill="#cbcbcb" stroke="#cbcbcb" stroke-width="1.51"/><path d="M2037,177L1905,351L2061,414Z" fill="#d2d2d2" stroke="#d2d2d2" stroke-width="1.51"/><path d="M2061,414L2063,564L2135,494Z" fill="#cfcfcf" stroke="#cfcfcf" stroke-width="1.51"/><path d="M422,-227L760,-225L1055,-286Z" fill="#eaeaea" stroke="#eaeaea" stroke-width="1.51"/><path d="M1884,1026L1953,1084L2074,880Z" fill="#c8c8c8" stroke="#c8c8c8" stroke-width="1.51"/><path d="M2063,564L1989,663L2110,666Z" fill="#cccccc" stroke="#cccccc" stroke-width="1.51"/><path d="M1867,-97L1928,59L2013,-151Z" fill="#dbdbdb" stroke="#dbdbdb" stroke-width="1.51"/><path d="M2061,414L1905,351L2063,564Z" fill="#cfcfcf" stroke="#cfcfcf" stroke-width="1.51"/><path d="M1763,960L1884,1026L2074,880Z" fill="#c8c8c8" stroke="#c8c8c8" stroke-width="1.51"/><path d="M1752,745L1763,960L2074,880Z" fill="#cacaca" stroke="#cacaca" stroke-width="1.51"/><path d="M1989,663L1752,745L2074,880Z" fill="#cbcbcb" stroke="#cbcbcb" stroke-width="1.51"/><path d="M1764,553L1989,663L2063,564Z" fill="#cdcdcd" stroke="#cdcdcd" stroke-width="1.51"/><path d="M1905,351L1764,553L2063,564Z" fill="#cfcfcf" stroke="#cfcfcf" stroke-width="1.51"/><path d="M1928,59L1837,158L2037,177Z" fill="#d5d5d5" stroke="#d5d5d5" stroke-width="1.51"/><path d="M1837,158L1905,351L2037,177Z" fill="#d4d4d4" stroke="#d4d4d4" stroke-width="1.51"/><path d="M1753,1297L1680,1340L1941,1331Z" fill="#c7c7c7" stroke="#c7c7c7" stroke-width="1.51"/><path d="M1753,1297L1941,1331L1953,1084Z" fill="#c7c7c7" stroke="#c7c7c7" stroke-width="1.51"/><path d="M1820,-294L1867,-97L2013,-151Z" fill="#dfdfdf" stroke="#dfdfdf" stroke-width="1.51"/><path d="M1764,553L1752,745L1989,663Z" fill="#cdcdcd" stroke="#cdcdcd" stroke-width="1.51"/><path d="M1663,1193L1753,1297L1884,1026Z" fill="#c8c8c8" stroke="#c8c8c8" stroke-width="1.51"/><path d="M1884,1026L1753,1297L1953,1084Z" fill="#c8c8c8" stroke="#c8c8c8" stroke-width="1.51"/><path d="M1867,-97L1837,158L1928,59Z" fill="#d8d8d8" stroke="#d8d8d8" stroke-width="1.51"/><path d="M1599,-44L1837,158L1867,-97Z" fill="#d9d9d9" stroke="#d9d9d9" stroke-width="1.51"/><path d="M1673,335L1764,553L1905,351Z" fill="#d0d0d0" stroke="#d0d0d0" stroke-width="1.51"/><path d="M1837,158L1684,212L1905,351Z" fill="#d3d3d3" stroke="#d3d3d3" stroke-width="1.51"/><path d="M1684,212L1673,335L1905,351Z" fill="#d2d2d2" stroke="#d2d2d2" stroke-width="1.51"/><path d="M1820,-294L1624,-156L1867,-97Z" fill="#dfdfdf" stroke="#dfdfdf" stroke-width="1.51"/><path d="M1763,960L1663,1193L1884,1026Z" fill="#c8c8c8" stroke="#c8c8c8" stroke-width="1.51"/><path d="M1356,-210L1624,-156L1820,-294Z" fill="#e1e1e1" stroke="#e1e1e1" stroke-width="1.51"/><path d="M1599,-44L1684,212L1837,158Z" fill="#d6d6d6" stroke="#d6d6d6" stroke-width="1.51"/><path d="M1624,-156L1599,-44L1867,-97Z" fill="#dddddd" stroke="#dddddd" stroke-width="1.51"/><path d="M1752,745L1694,947L1763,960Z" fill="#c9c9c9" stroke="#c9c9c9" stroke-width="1.51"/><path d="M1687,586L1752,745L1764,553Z" fill="#cecece" stroke="#cecece" stroke-width="1.51"/><path d="M1694,947L1663,1193L1763,960Z" fill="#c9c9c9" stroke="#c9c9c9" stroke-width="1.51"/><path d="M760,-225L814,-230L1055,-286Z" fill="#e9e9e9" stroke="#e9e9e9" stroke-width="1.51"/><path d="M1604,743L1694,947L1752,745Z" fill="#cbcbcb" stroke="#cbcbcb" stroke-width="1.51"/><path d="M1687,586L1604,743L1752,745Z" fill="#cdcdcd" stroke="#cdcdcd" stroke-width="1.51"/><path d="M1673,335L1687,586L1764,553Z" fill="#d0d0d0" stroke="#d0d0d0" stroke-width="1.51"/><path d="M1663,1193L1680,1340L1753,1297Z" fill="#c8c8c8" stroke="#c8c8c8" stroke-width="1.51"/><path d="M1444,753L1383,954L1604,743Z" fill="#cccccc" stroke="#cccccc" stroke-width="1.51"/><path d="M1663,1193L1459,1329L1680,1340Z" fill="#c8c8c8" stroke="#c8c8c8" stroke-width="1.51"/><path d="M1435,248L1673,335L1684,212Z" fill="#d4d4d4" stroke="#d4d4d4" stroke-width="1.51"/><path d="M1599,-44L1435,248L1684,212Z" fill="#d6d6d6" stroke="#d6d6d6" stroke-width="1.51"/><path d="M1673,335L1372,514L1687,586Z" fill="#d0d0d0" stroke="#d0d0d0" stroke-width="1.51"/><path d="M1604,743L1383,954L1694,947Z" fill="#cacaca" stroke="#cacaca" stroke-width="1.51"/><path d="M1383,954L1419,1084L1694,947Z" fill="#cacaca" stroke="#cacaca" stroke-width="1.51"/><path d="M1419,1084L1663,1193L1694,947Z" fill="#c9c9c9" stroke="#c9c9c9" stroke-width="1.51"/><path d="M1435,248L1372,514L1673,335Z" fill="#d3d3d3" stroke="#d3d3d3" stroke-width="1.51"/><path d="M1372,514L1604,743L1687,586Z" fill="#cecece" stroke="#cecece" stroke-width="1.51"/><path d="M1372,514L1444,753L1604,743Z" fill="#cecece" stroke="#cecece" stroke-width="1.51"/><path d="M1419,1084L1459,1329L1663,1193Z" fill="#c9c9c9" stroke="#c9c9c9" stroke-width="1.51"/><path d="M1361,-40L1435,248L1599,-44Z" fill="#dadada" stroke="#dadada" stroke-width="1.51"/><path d="M1356,-210L1361,-40L1599,-44Z" fill="#dedede" stroke="#dedede" stroke-width="1.51"/><path d="M1356,-210L1599,-44L1624,-156Z" fill="#dfdfdf" stroke="#dfdfdf" stroke-width="1.51"/><path d="M131,1318L-161,1359L236,1318Z" fill="#d9d9d9" stroke="#d9d9d9" stroke-width="1.51"/><path d="M1361,-40L1326,-7L1435,248Z" fill="#dadada" stroke="#dadada" stroke-width="1.51"/><path d="M897,1269L614,1279L1197,1391Z" fill="#cecece" stroke="#cecece" stroke-width="1.51"/><path d="M614,1279L494,1314L1197,1391Z" fill="#cfcfcf" stroke="#cfcfcf" stroke-width="1.51"/><path d="M1309,443L1325,482L1372,514Z" fill="#d2d2d2" stroke="#d2d2d2" stroke-width="1.51"/><path d="M1290,146L1346,266L1435,248Z" fill="#d7d7d7" stroke="#d7d7d7" stroke-width="1.51"/><path d="M1326,-7L1290,146L1435,248Z" fill="#d8d8d8" stroke="#d8d8d8" stroke-width="1.51"/><path d="M1309,443L1372,514L1435,248Z" fill="#d4d4d4" stroke="#d4d4d4" stroke-width="1.51"/><path d="M1346,266L1309,443L1435,248Z" fill="#d5d5d5" stroke="#d5d5d5" stroke-width="1.51"/><path d="M1196,784L1383,954L1444,753Z" fill="#cdcdcd" stroke="#cdcdcd" stroke-width="1.51"/><path d="M1372,514L1196,784L1444,753Z" fill="#cfcfcf" stroke="#cfcfcf" stroke-width="1.51"/><path d="M1419,1084L1185,1157L1459,1329Z" fill="#cacaca" stroke="#cacaca" stroke-width="1.51"/><path d="M1185,1157L1197,1391L1459,1329Z" fill="#cbcbcb" stroke="#cbcbcb" stroke-width="1.51"/><path d="M1325,482L1196,784L1372,514Z" fill="#d1d1d1" stroke="#d1d1d1" stroke-width="1.51"/><path d="M1383,954L1185,1157L1419,1084Z" fill="#cbcbcb" stroke="#cbcbcb" stroke-width="1.51"/><path d="M1115,478L1196,784L1325,482Z" fill="#d2d2d2" stroke="#d2d2d2" stroke-width="1.51"/><path d="M1356,-210L1262,-221L1361,-40Z" fill="#e1e1e1" stroke="#e1e1e1" stroke-width="1.51"/><path d="M1196,784L1154,843L1383,954Z" fill="#cecece" stroke="#cecece" stroke-width="1.51"/><path d="M1154,843L1185,1157L1383,954Z" fill="#cccccc" stroke="#cccccc" stroke-width="1.51"/><path d="M1262,-221L1326,-7L1361,-40Z" fill="#e0e0e0" stroke="#e0e0e0" stroke-width="1.51"/><path d="M1115,478L1309,443L1346,266Z" fill="#d5d5d5" stroke="#d5d5d5" stroke-width="1.51"/><path d="M1290,146L1115,478L1346,266Z" fill="#d7d7d7" stroke="#d7d7d7" stroke-width="1.51"/><path d="M1185,1157L1104,1228L1197,1391Z" fill="#cccccc" stroke="#cccccc" stroke-width="1.51"/><path d="M1049,84L1115,478L1290,146Z" fill="#d9d9d9" stroke="#d9d9d9" stroke-width="1.51"/><path d="M1309,443L1115,478L1325,482Z" fill="#d4d4d4" stroke="#d4d4d4" stroke-width="1.51"/><path d="M1096,51L1290,146L1326,-7Z" fill="#dbdbdb" stroke="#dbdbdb" stroke-width="1.51"/><path d="M1262,-221L1096,51L1326,-7Z" fill="#dfdfdf" stroke="#dfdfdf" stroke-width="1.51"/><path d="M1049,84L982,426L1115,478Z" fill="#d7d7d7" stroke="#d7d7d7" stroke-width="1.51"/><path d="M1154,843L1116,1151L1185,1157Z" fill="#cdcdcd" stroke="#cdcdcd" stroke-width="1.51"/><path d="M1055,-286L1096,51L1262,-221Z" fill="#e3e3e3" stroke="#e3e3e3" stroke-width="1.51"/><path d="M1096,51L1049,84L1290,146Z" fill="#dbdbdb" stroke="#dbdbdb" stroke-width="1.51"/><path d="M1055,-286L938,-41L1096,51Z" fill="#e2e2e2" stroke="#e2e2e2" stroke-width="1.51"/><path d="M1115,478L883,778L1128,821Z" fill="#d2d2d2" stroke="#d2d2d2" stroke-width="1.51"/><path d="M883,778L976,839L1128,821Z" fill="#d0d0d0" stroke="#d0d0d0" stroke-width="1.51"/><path d="M976,839L1116,1151L1154,843Z" fill="#cecece" stroke="#cecece" stroke-width="1.51"/><path d="M1116,1151L1104,1228L1185,1157Z" fill="#cdcdcd" stroke="#cdcdcd" stroke-width="1.51"/><path d="M1128,821L1154,843L1196,784Z" fill="#cfcfcf" stroke="#cfcfcf" stroke-width="1.51"/><path d="M1115,478L1128,821L1196,784Z" fill="#d1d1d1" stroke="#d1d1d1" stroke-width="1.51"/><path d="M1104,1228L897,1269L1197,1391Z" fill="#cdcdcd" stroke="#cdcdcd" stroke-width="1.51"/><path d="M982,426L852,483L1115,478Z" fill="#d6d6d6" stroke="#d6d6d6" stroke-width="1.51"/><path d="M852,483L883,778L1115,478Z" fill="#d4d4d4" stroke="#d4d4d4" stroke-width="1.51"/><path d="M976,839L778,1017L1116,1151Z" fill="#cfcfcf" stroke="#cfcfcf" stroke-width="1.51"/><path d="M1128,821L976,839L1154,843Z" fill="#d0d0d0" stroke="#d0d0d0" stroke-width="1.51"/><path d="M923,422L982,426L1049,84Z" fill="#d9d9d9" stroke="#d9d9d9" stroke-width="1.51"/><path d="M787,172L923,422L1049,84Z" fill="#dbdbdb" stroke="#dbdbdb" stroke-width="1.51"/><path d="M897,1269L1104,1228L1116,1151Z" fill="#cdcdcd" stroke="#cdcdcd" stroke-width="1.51"/><path d="M778,1017L897,1269L1116,1151Z" fill="#cfcfcf" stroke="#cfcfcf" stroke-width="1.51"/><path d="M938,-41L1049,84L1096,51Z" fill="#dedede" stroke="#dedede" stroke-width="1.51"/><path d="M814,-230L938,-41L1055,-286Z" fill="#e6e6e6" stroke="#e6e6e6" stroke-width="1.51"/><path d="M812,863L778,1017L976,839Z" fill="#d1d1d1" stroke="#d1d1d1" stroke-width="1.51"/><path d="M938,-41L787,172L1049,84Z" fill="#dedede" stroke="#dedede" stroke-width="1.51"/><path d="M852,483L753,673L883,778Z" fill="#d5d5d5" stroke="#d5d5d5" stroke-width="1.51"/><path d="M787,172L737,283L923,422Z" fill="#dbdbdb" stroke="#dbdbdb" stroke-width="1.51"/><path d="M923,422L852,483L982,426Z" fill="#d7d7d7" stroke="#d7d7d7" stroke-width="1.51"/><path d="M883,778L812,863L976,839Z" fill="#d2d2d2" stroke="#d2d2d2" stroke-width="1.51"/><path d="M599,55L787,172L938,-41Z" fill="#e0e0e0" stroke="#e0e0e0" stroke-width="1.51"/><path d="M760,-225L599,55L938,-41Z" fill="#e4e4e4" stroke="#e4e4e4" stroke-width="1.51"/><path d="M814,-230L760,-225L938,-41Z" fill="#e6e6e6" stroke="#e6e6e6" stroke-width="1.51"/><path d="M737,283L852,483L923,422Z" fill="#d9d9d9" stroke="#d9d9d9" stroke-width="1.51"/><path d="M778,1017L614,1279L897,1269Z" fill="#d0d0d0" stroke="#d0d0d0" stroke-width="1.51"/><path d="M753,673L812,863L883,778Z" fill="#d3d3d3" stroke="#d3d3d3" stroke-width="1.51"/><path d="M537,-70L599,55L760,-225Z" fill="#e6e6e6" stroke="#e6e6e6" stroke-width="1.51"/><path d="M622,1036L614,1279L778,1017Z" fill="#d1d1d1" stroke="#d1d1d1" stroke-width="1.51"/><path d="M723,221L737,283L787,172Z" fill="#dddddd" stroke="#dddddd" stroke-width="1.51"/><path d="M604,516L753,673L852,483Z" fill="#d7d7d7" stroke="#d7d7d7" stroke-width="1.51"/><path d="M737,283L604,516L852,483Z" fill="#d9d9d9" stroke="#d9d9d9" stroke-width="1.51"/><path d="M557,1190L614,1279L622,1036Z" fill="#d2d2d2" stroke="#d2d2d2" stroke-width="1.51"/><path d="M639,900L778,1017L812,863Z" fill="#d2d2d2" stroke="#d2d2d2" stroke-width="1.51"/><path d="M753,673L639,900L812,863Z" fill="#d3d3d3" stroke="#d3d3d3" stroke-width="1.51"/><path d="M639,900L622,1036L778,1017Z" fill="#d2d2d2" stroke="#d2d2d2" stroke-width="1.51"/><path d="M599,55L723,221L787,172Z" fill="#dfdfdf" stroke="#dfdfdf" stroke-width="1.51"/><path d="M554,578L453,822L639,900Z" fill="#d6d6d6" stroke="#d6d6d6" stroke-width="1.51"/><path d="M599,55L570,104L723,221Z" fill="#dfdfdf" stroke="#dfdfdf" stroke-width="1.51"/><path d="M554,578L639,900L753,673Z" fill="#d6d6d6" stroke="#d6d6d6" stroke-width="1.51"/><path d="M604,516L554,578L753,673Z" fill="#d8d8d8" stroke="#d8d8d8" stroke-width="1.51"/><path d="M422,-227L537,-70L760,-225Z" fill="#eaeaea" stroke="#eaeaea" stroke-width="1.51"/><path d="M435,326L604,516L737,283Z" fill="#dcdcdc" stroke="#dcdcdc" stroke-width="1.51"/><path d="M723,221L435,326L737,283Z" fill="#dddddd" stroke="#dddddd" stroke-width="1.51"/><path d="M570,104L435,326L723,221Z" fill="#dfdfdf" stroke="#dfdfdf" stroke-width="1.51"/><path d="M394,933L622,1036L639,900Z" fill="#d3d3d3" stroke="#d3d3d3" stroke-width="1.51"/><path d="M453,822L394,933L639,900Z" fill="#d5d5d5" stroke="#d5d5d5" stroke-width="1.51"/><path d="M394,933L557,1190L622,1036Z" fill="#d3d3d3" stroke="#d3d3d3" stroke-width="1.51"/><path d="M435,326L554,578L604,516Z" fill="#dbdbdb" stroke="#dbdbdb" stroke-width="1.51"/><path d="M557,1190L494,1314L614,1279Z" fill="#d2d2d2" stroke="#d2d2d2" stroke-width="1.51"/><path d="M537,-70L570,104L599,55Z" fill="#e3e3e3" stroke="#e3e3e3" stroke-width="1.51"/><path d="M313,631L387,811L453,822Z" fill="#d8d8d8" stroke="#d8d8d8" stroke-width="1.51"/><path d="M313,631L453,822L554,578Z" fill="#d9d9d9" stroke="#d9d9d9" stroke-width="1.51"/><path d="M435,326L313,631L554,578Z" fill="#dbdbdb" stroke="#dbdbdb" stroke-width="1.51"/><path d="M394,933L227,1105L557,1190Z" fill="#d5d5d5" stroke="#d5d5d5" stroke-width="1.51"/><path d="M214,152L435,326L570,104Z" fill="#e1e1e1" stroke="#e1e1e1" stroke-width="1.51"/><path d="M537,-70L286,-109L570,104Z" fill="#e6e6e6" stroke="#e6e6e6" stroke-width="1.51"/><path d="M286,-109L214,152L570,104Z" fill="#e5e5e5" stroke="#e5e5e5" stroke-width="1.51"/><path d="M227,1105L494,1314L557,1190Z" fill="#d4d4d4" stroke="#d4d4d4" stroke-width="1.51"/><path d="M248,381L313,631L435,326Z" fill="#dddddd" stroke="#dddddd" stroke-width="1.51"/><path d="M422,-227L286,-109L537,-70Z" fill="#eaeaea" stroke="#eaeaea" stroke-width="1.51"/><path d="M-54,-252L94,-144L422,-227Z" fill="#f1f1f1" stroke="#f1f1f1" stroke-width="1.51"/><path d="M288,-131L286,-109L422,-227Z" fill="#ececec" stroke="#ececec" stroke-width="1.51"/><path d="M227,1105L236,1318L494,1314Z" fill="#d5d5d5" stroke="#d5d5d5" stroke-width="1.51"/><path d="M94,-144L288,-131L422,-227Z" fill="#ededed" stroke="#ededed" stroke-width="1.51"/><path d="M214,152L248,381L435,326Z" fill="#e1e1e1" stroke="#e1e1e1" stroke-width="1.51"/><path d="M376,833L394,933L453,822Z" fill="#d6d6d6" stroke="#d6d6d6" stroke-width="1.51"/><path d="M387,811L376,833L453,822Z" fill="#d7d7d7" stroke="#d7d7d7" stroke-width="1.51"/><path d="M163,727L376,833L387,811Z" fill="#d9d9d9" stroke="#d9d9d9" stroke-width="1.51"/><path d="M313,631L163,727L387,811Z" fill="#dadada" stroke="#dadada" stroke-width="1.51"/><path d="M376,833L54,897L394,933Z" fill="#d8d8d8" stroke="#d8d8d8" stroke-width="1.51"/><path d="M54,897L227,1105L394,933Z" fill="#d8d8d8" stroke="#d8d8d8" stroke-width="1.51"/><path d="M248,381L109,513L313,631Z" fill="#dedede" stroke="#dedede" stroke-width="1.51"/><path d="M163,727L54,897L376,833Z" fill="#dadada" stroke="#dadada" stroke-width="1.51"/><path d="M182,393L109,513L248,381Z" fill="#e1e1e1" stroke="#e1e1e1" stroke-width="1.51"/><path d="M214,152L182,393L248,381Z" fill="#e2e2e2" stroke="#e2e2e2" stroke-width="1.51"/><path d="M61,19L131,101L286,-109Z" fill="#eaeaea" stroke="#eaeaea" stroke-width="1.51"/><path d="M131,101L214,152L286,-109Z" fill="#e7e7e7" stroke="#e7e7e7" stroke-width="1.51"/><path d="M109,513L163,727L313,631Z" fill="#dddddd" stroke="#dddddd" stroke-width="1.51"/><path d="M227,1105L98,1145L236,1318Z" fill="#d7d7d7" stroke="#d7d7d7" stroke-width="1.51"/><path d="M98,1145L131,1318L236,1318Z" fill="#d8d8d8" stroke="#d8d8d8" stroke-width="1.51"/><path d="M94,-144L61,19L286,-109Z" fill="#ededed" stroke="#ededed" stroke-width="1.51"/><path d="M94,-144L286,-109L288,-131Z" fill="#ededed" stroke="#ededed" stroke-width="1.51"/><path d="M131,101L-40,150L182,393Z" fill="#e6e6e6" stroke="#e6e6e6" stroke-width="1.51"/><path d="M131,101L182,393L214,152Z" fill="#e4e4e4" stroke="#e4e4e4" stroke-width="1.51"/><path d="M54,897L98,1145L227,1105Z" fill="#d9d9d9" stroke="#d9d9d9" stroke-width="1.51"/><path d="M-40,150L-9,439L182,393Z" fill="#e5e5e5" stroke="#e5e5e5" stroke-width="1.51"/><path d="M54,897L-43,1047L98,1145Z" fill="#dbdbdb" stroke="#dbdbdb" stroke-width="1.51"/><path d="M109,513L-130,670L163,727Z" fill="#e0e0e0" stroke="#e0e0e0" stroke-width="1.51"/><path d="M-9,439L109,513L182,393Z" fill="#e2e2e2" stroke="#e2e2e2" stroke-width="1.51"/><path d="M-130,670L54,897L163,727Z" fill="#dfdfdf" stroke="#dfdfdf" stroke-width="1.51"/><path d="M-5,-122L61,19L94,-144Z" fill="#efefef" stroke="#efefef" stroke-width="1.51"/><path d="M61,19L-40,150L131,101Z" fill="#e9e9e9" stroke="#e9e9e9" stroke-width="1.51"/><path d="M98,1145L-161,1359L131,1318Z" fill="#dbdbdb" stroke="#dbdbdb" stroke-width="1.51"/><path d="M-54,-252L-5,-122L94,-144Z" fill="#f2f2f2" stroke="#f2f2f2" stroke-width="1.51"/><path d="M-43,1047L-161,1359L98,1145Z" fill="#dcdcdc" stroke="#dcdcdc" stroke-width="1.51"/><path d="M-9,439L-130,670L109,513Z" fill="#e2e2e2" stroke="#e2e2e2" stroke-width="1.51"/><path d="M-130,670L-114,916L54,897Z" fill="#dfdfdf" stroke="#dfdfdf" stroke-width="1.51"/><path d="M-247,1244L-161,1359L-43,1047Z" fill="#dedede" stroke="#dedede" stroke-width="1.51"/><path d="M-149,467L-130,670L-9,439Z" fill="#e5e5e5" stroke="#e5e5e5" stroke-width="1.51"/><path d="M-114,916L-43,1047L54,897Z" fill="#dddddd" stroke="#dddddd" stroke-width="1.51"/><path d="M-5,-122L-40,150L61,19Z" fill="#ededed" stroke="#ededed" stroke-width="1.51"/><path d="M-215,166L-149,467L-40,150Z" fill="#eaeaea" stroke="#eaeaea" stroke-width="1.51"/><path d="M-40,150L-149,467L-9,439Z" fill="#e7e7e7" stroke="#e7e7e7" stroke-width="1.51"/><path d="M-253,1058L-247,1244L-43,1047Z" fill="#dfdfdf" stroke="#dfdfdf" stroke-width="1.51"/><path d="M-302,-66L-215,166L-40,150Z" fill="#eeeeee" stroke="#eeeeee" stroke-width="1.51"/><path d="M-302,-66L-40,150L-5,-122Z" fill="#f0f0f0" stroke="#f0f0f0" stroke-width="1.51"/><path d="M-231,-187L-302,-66L-5,-122Z" fill="#f5f5f5" stroke="#f5f5f5" stroke-width="1.51"/><path d="M-54,-252L-231,-187L-5,-122Z" fill="#f5f5f5" stroke="#f5f5f5" stroke-width="1.51"/><path d="M-215,166L-324,335L-149,467Z" fill="#ebebeb" stroke="#ebebeb" stroke-width="1.51"/><path d="M-114,916L-253,1058L-43,1047Z" fill="#dfdfdf" stroke="#dfdfdf" stroke-width="1.51"/><path d="M-149,467L-294,528L-130,670Z" fill="#e6e6e6" stroke="#e6e6e6" stroke-width="1.51"/><path d="M-294,528L-305,644L-130,670Z" fill="#e6e6e6" stroke="#e6e6e6" stroke-width="1.51"/><path d="M-369,1010L-253,1058L-114,916Z" fill="#e1e1e1" stroke="#e1e1e1" stroke-width="1.51"/><path d="M-130,670L-305,644L-114,916Z" fill="#e3e3e3" stroke="#e3e3e3" stroke-width="1.51"/><path d="M-305,644L-369,1010L-114,916Z" fill="#e3e3e3" stroke="#e3e3e3" stroke-width="1.51"/><path d="M-324,335L-294,528L-149,467Z" fill="#e9e9e9" stroke="#e9e9e9" stroke-width="1.51"/><path d="M-302,-66L-324,335L-215,166Z" fill="#efefef" stroke="#efefef" stroke-width="1.51"/><path d="M-253,1058L-369,1010L-247,1244Z" fill="#e2e2e2" stroke="#e2e2e2" stroke-width="1.51"/><path d="M-324,335L-305,644L-294,528Z" fill="#e9e9e9" stroke="#e9e9e9" stroke-width="1.51"/><path d="M-324,335L-369,1010L-305,644Z" fill="#e7e7e7" stroke="#e7e7e7" stroke-width="1.51"/></svg>